<svg width="80" height="32" viewBox="0 0 80 32" fill="none" xmlns="http://www.w3.org/2000/svg">
  <defs>
    <linearGradient id="logoGradient" x1="0%" y1="0%" x2="100%" y2="100%">
      <stop offset="0%" style="stop-color:#8B5CF6;stop-opacity:1" />
      <stop offset="50%" style="stop-color:#06B6D4;stop-opacity:1" />
      <stop offset="100%" style="stop-color:#10B981;stop-opacity:1" />
    </linearGradient>
  </defs>
  
  <!-- R -->
  <path d="M6 26 L6 6 L14 6 Q17 6 18.5 7.5 Q20 9 20 12 Q20 15 18.5 16.5 Q17 18 14 18 L9 18 L20 26 L17 26 L6 18 L6 26 Z" 
        fill="url(#logoGradient)"/>
  
  <!-- y -->
  <path d="M24 6 L30 6 L27 15 L32 26 L29 26 L27 18 L24 26 L21 26 L27 15 L24 6 Z" 
        fill="url(#logoGradient)"/>
  
  <!-- a -->
  <path d="M36 6 L42 6 Q45 6 46.5 7.5 Q48 9 48 12 Q48 15 46.5 16.5 Q45 18 42 18 L38 18 L38 26 L36 26 L36 6 Z M38 9 L38 15 L42 15 Q43 15 43 12 Q43 9 42 9 L38 9 Z" 
        fill="url(#logoGradient)"/>
  
  <!-- n -->
  <path d="M52 6 L55 6 L55 15 Q55 18 53.5 19.5 Q52 21 49 21 L52 21 Q53.5 21 54.5 19.5 Q55 18 55 15 L55 26 L52 26 L52 6 Z" 
        fill="url(#logoGradient)"/>
  
  <!-- 装饰点 -->
  <circle cx="65" cy="10" r="1.5" fill="url(#logoGradient)" opacity="0.6"/>
  <circle cx="68" cy="13" r="1" fill="url(#logoGradient)" opacity="0.4"/>
</svg>
