<svg width="120" height="40" viewBox="0 0 120 40" fill="none" xmlns="http://www.w3.org/2000/svg">
  <defs>
    <linearGradient id="logoGradient" x1="0%" y1="0%" x2="100%" y2="100%">
      <stop offset="0%" style="stop-color:#8B5CF6;stop-opacity:1" />
      <stop offset="50%" style="stop-color:#06B6D4;stop-opacity:1" />
      <stop offset="100%" style="stop-color:#10B981;stop-opacity:1" />
    </linearGradient>
    <filter id="glow">
      <feGaussianBlur stdDeviation="2" result="coloredBlur"/>
      <feMerge> 
        <feMergeNode in="coloredBlur"/>
        <feMergeNode in="SourceGraphic"/>
      </feMerge>
    </filter>
  </defs>
  
  <!-- R -->
  <path d="M8 32 L8 8 L20 8 Q24 8 26 10 Q28 12 28 16 Q28 20 26 22 Q24 24 20 24 L12 24 L28 32 L24 32 L8 24 L8 32 Z" 
        fill="url(#logoGradient)" 
        stroke="url(#logoGradient)" 
        stroke-width="0.5"
        filter="url(#glow)"/>
  
  <!-- y -->
  <path d="M32 8 L40 8 L36 20 L44 32 L40 32 L36 24 L32 32 L28 32 L36 20 L32 8 Z" 
        fill="url(#logoGradient)" 
        stroke="url(#logoGradient)" 
        stroke-width="0.5"
        filter="url(#glow)"/>
  
  <!-- a -->
  <path d="M48 8 L56 8 Q60 8 62 10 Q64 12 64 16 Q64 20 62 22 Q60 24 56 24 L52 24 L52 32 L48 32 L48 8 Z M52 12 L52 20 L56 20 Q58 20 58 16 Q58 12 56 12 L52 12 Z" 
        fill="url(#logoGradient)" 
        stroke="url(#logoGradient)" 
        stroke-width="0.5"
        filter="url(#glow)"/>
  
  <!-- n -->
  <path d="M68 8 L72 8 L72 20 Q72 24 70 26 Q68 28 64 28 L68 28 Q70 28 71 26 Q72 24 72 20 L72 32 L68 32 L68 8 Z" 
        fill="url(#logoGradient)" 
        stroke="url(#logoGradient)" 
        stroke-width="0.5"
        filter="url(#glow)"/>
  
  <!-- 装饰性元素 -->
  <circle cx="100" cy="12" r="2" fill="url(#logoGradient)" opacity="0.6"/>
  <circle cx="104" cy="16" r="1.5" fill="url(#logoGradient)" opacity="0.4"/>
  <circle cx="108" cy="20" r="1" fill="url(#logoGradient)" opacity="0.3"/>
  
  <!-- 下划线装饰 -->
  <path d="M8 36 L112 36" 
        stroke="url(#logoGradient)" 
        stroke-width="1" 
        stroke-linecap="round"
        opacity="0.6"/>
</svg>
